<?xml version="1.0" encoding="iso-8859-1"?>
<!-- Uploaded to: SVG Repo, www.svgrepo.com, Generator: SVG Repo Mixer Tools -->
<svg height="800px" width="800px" version="1.1" id="Layer_1" xmlns="http://www.w3.org/2000/svg" xmlns:xlink="http://www.w3.org/1999/xlink" 
	 viewBox="0 0 512 512" xml:space="preserve">
<path style="fill:#FFD9B3;" d="M256,172.522c-9.217,0-16.696-7.479-16.696-16.696V116.87c0-9.217,7.479-16.696,16.696-16.696
	s16.696,7.479,16.696,16.696v38.957C272.696,165.043,265.217,172.522,256,172.522z"/>
<path style="fill:#F26D76;" d="M388.783,296.185c-22.674,0-35.935-14.424-45.609-24.968C333.88,261.12,329.37,257.001,322,257.001
	c-7.283,0-11.783,4.098-21.022,14.163c-9.707,10.565-23,25.021-45.761,25.021c-22.457,0-35.816-14.392-45.566-24.902
	c-8.696-9.392-13.598-14.283-21.218-14.283c-7.283,0-11.783,4.098-21.022,14.163c-9.707,10.565-23,25.021-45.761,25.021
	c-23.283,0-37.739-15.891-49.359-28.663c-7.13-7.848-13.87-15.25-20.336-16.718c-7.597-1.729-12.999-8.489-12.999-16.283v-28.609
	c0-27.619,22.468-50.087,50.087-50.087h333.913c27.619,0,50.087,22.468,50.087,50.087v34.391c0,9.217-7.479,16.696-16.696,16.696
	c-8.065,0-12.565,4.098-21.805,14.164C424.836,281.728,411.543,296.185,388.783,296.185z M456.348,240.304h0.109H456.348z"/>
<path style="fill:#E65C64;" d="M422.957,155.826H256v140.297c22.261-0.343,35.388-14.522,44.978-24.96
	c9.239-10.065,13.739-14.164,21.022-14.164c7.369,0,11.881,4.119,21.173,14.217c9.673,10.544,22.934,24.968,45.609,24.968
	c22.761,0,36.055-14.456,45.761-25.021c9.239-10.065,13.739-14.164,21.805-14.164c9.217,0,16.696-7.479,16.696-16.696v-34.391
	C473.043,178.294,450.576,155.826,422.957,155.826z"/>
<path style="fill:#FFC033;" d="M456.348,389.565H55.652c-9.217,0-16.696-7.479-16.696-16.696V234.522
	c0-5.077,2.315-9.88,6.283-13.044c3.957-3.174,9.141-4.336,14.109-3.239c16.707,3.793,27.826,16.022,37.652,26.815
	c10.033,11.033,16.707,17.74,24.652,17.74c7.369,0,11.881-4.119,21.173-14.217c9.673-10.544,22.934-24.968,45.609-24.968
	c22.555,0,35.935,14.424,45.706,24.968c8.663,9.337,13.544,14.217,21.077,14.217c7.369,0,11.881-4.119,21.173-14.217
	c9.673-10.544,22.934-24.968,45.609-24.968c22.761,0,36.055,14.456,45.761,25.021c9.239,10.065,13.739,14.163,21.022,14.163
	c7.369,0,11.881-4.119,21.173-14.217c9.673-10.544,22.934-24.968,45.609-24.968c9.217,0,17.478,7.479,17.478,16.696V372.87
	C473.043,382.087,465.565,389.565,456.348,389.565z"/>
<path style="fill:#F9A926;" d="M455.565,223.608c-22.674,0-35.935,14.424-45.609,24.968c-9.294,10.098-13.804,14.217-21.173,14.217
	c-7.283,0-11.783-4.098-21.022-14.163c-9.707-10.565-23-25.021-45.761-25.021c-22.674,0-35.935,14.424-45.609,24.968
	c-8.938,9.711-13.502,13.788-20.391,14.094v126.895h200.348c9.217,0,16.696-7.479,16.696-16.696V240.304
	C473.043,231.087,464.782,223.608,455.565,223.608z"/>
<path style="fill:#D7EBFF;" d="M495.304,389.565H16.696C7.479,389.565,0,382.087,0,372.87c0-9.217,7.479-16.696,16.696-16.696
	h478.609c9.217,0,16.696,7.479,16.696,16.696C512,382.087,504.521,389.565,495.304,389.565z"/>
<path style="fill:#BDDEFF;" d="M495.304,356.174H256v33.391h239.304c9.217,0,16.696-7.479,16.696-16.696
	C512,363.652,504.521,356.174,495.304,356.174z"/>
<path style="fill:#D7EBFF;" d="M256,512c-9.217,0-16.696-7.479-16.696-16.696v-116.87c0-9.217,7.479-16.696,16.696-16.696
	s16.696,7.479,16.696,16.696v116.87C272.696,504.521,265.217,512,256,512z"/>
<path style="fill:#BDDEFF;" d="M272.696,495.304v-116.87c0-9.217-7.479-16.696-16.696-16.696V512
	C265.217,512,272.696,504.521,272.696,495.304z"/>
<path style="fill:#D7EBFF;" d="M389.565,512h-267.13c-9.217,0-16.696-7.479-16.696-16.696c0-9.217,7.479-16.696,16.696-16.696
	h267.13c9.217,0,16.696,7.479,16.696,16.696C406.261,504.521,398.782,512,389.565,512z"/>
<path style="fill:#BDDEFF;" d="M389.565,478.609H256V512h133.565c9.217,0,16.696-7.479,16.696-16.696
	C406.261,486.087,398.782,478.609,389.565,478.609z"/>
<path style="fill:#FFC033;" d="M256,133.565c-27.619,0-50.087-22.468-50.087-50.087c0-8.761,2.304-17.402,6.674-24.978
	l28.957-50.153C244.521,3.184,250.033,0,256,0c5.967,0,11.478,3.184,14.456,8.348l28.946,50.141l0.011,0.011
	c4.37,7.575,6.674,16.217,6.674,24.978C306.087,111.097,283.619,133.565,256,133.565z"/>
<path style="fill:#F9A926;" d="M306.087,83.478c0-8.761-2.304-17.402-6.674-24.978l-0.011-0.011L270.456,8.348
	C267.478,3.184,261.967,0,256,0v133.565C283.619,133.565,306.087,111.097,306.087,83.478z"/>
</svg>